#!OML:ASF H:\ManfredETheater\Project 1\Capture day 1\Session 1\subject.ASF
:FULLY-SPECIFIED
:DEGREES
170
root 9.4802 15.4816 38.1303 5.73073 3.71674 4.47628
lowerback 14.6212 0.625257 -4.85866
upperback -0.169224 0.0018984 0.0340522
thorax -8.41452 0.208116 2.78936
lowerneck -23.3631 -3.36524 -4.4335
upperneck 12.6053 -3.56459 2.39477
head 7.80098 -1.67004 1.0416
rclavicle -1.09332e-015 5.56597e-015
rhumerus -49.0956 1.36599 -91.6312
rradius 84.6997
rwrist -8.3442
rhand -24.7756 9.15927
rfingers 7.12502
rthumb 1.72834 -20.8135
lclavicle -1.09332e-015 5.56597e-015
lhumerus -62.547 -6.81765 96.831
lradius 95.3447
lwrist 13.6381
lhand -22.9125 -11.7077
lfingers 7.12502
lthumb 3.52763 18.2428
rfemur -16.4356 -11.2127 11.1294
rtibia 96.0687
rfoot -5.61136 -11.9613
rtoes -23.0868
lfemur -46.0052 -3.5858 -27.3939
ltibia 63.8302
lfoot -17.4088 -3.31266
ltoes 1.53593
171
root 9.49405 15.4559 38.5783 5.67109 3.6802 4.58739
lowerback 14.6643 0.467176 -4.68418
upperback -0.206453 -0.192938 -0.100788
thorax -8.46311 0.105411 2.58779
lowerneck -23.1668 -3.30648 -4.42709
upperneck 12.6808 -3.50066 2.40676
head 7.79261 -1.63995 1.05495
rclavicle -6.70898e-015 2.54444e-014
rhumerus -49.7135 -0.147154 -90.948
rradius 81.5307
rwrist -8.86877
rhand -25.7533 9.28104
rfingers 7.12502
rthumb 0.783983 -20.6973
lclavicle -6.70898e-015 2.54444e-014
lhumerus -59.8436 -7.52223 96.8154
lradius 94.2464
lwrist 13.0803
lhand -22.9943 -11.7942
lfingers 7.12502
lthumb 3.44863 18.1577
rfemur -20.1642 -12.3527 11.0181
rtibia 97.4394
rfoot -6.93301 -11.2274
rtoes -23.9235
lfemur -44.5941 -3.72852 -27.552
ltibia 64.957
lfoot -19.4687 -2.63868
ltoes 1.02388
172
root 9.50701 15.4393 39.0253 5.57638 3.47563 4.66358
lowerback 14.7055 0.366614 -4.55472
upperback -0.259389 -0.316953 -0.205015
thorax -8.53496 0.0401359 2.42959
lowerneck -22.9424 -3.23369 -4.40916
upperneck 12.8274 -3.41949 2.39482
head 7.80225 -1.60396 1.06073
rclavicle 1.43125e-014 -7.95139e-016
rhumerus -50.487 -1.31288 -90.2297
rradius 78.8064
rwrist -9.52626
rhand -26.5977 9.47722
rfingers 7.12502
rthumb -0.031538 -20.5025
lclavicle 1.43125e-014 -7.95139e-016
lhumerus -57.3911 -7.97276 96.7126
lradius 93.6267
lwrist 12.2193
lhand -23.1046 -11.8062
lfingers 7.12502
lthumb 3.34209 18.1474
rfemur -23.905 -13.1541 11.1899
rtibia 98.2225
rfoot -8.10754 -10.6066
rtoes -25.1377
lfemur -42.9708 -3.66343 -27.6937
ltibia 65.7842
lfoot -21.3981 -2.00286
ltoes 0.52146
173
root 9.51786 15.4307 39.4718 5.43606 3.15329 4.78633
lowerback 14.7949 0.305704 -4.56706
upperback -0.326224 -0.414428 -0.290402
thorax -8.65175 -0.00456969 2.36678
lowerneck -22.7445 -3.14219 -4.37464
upperneck 13.0616 -3.31496 2.36562
head 7.84415 -1.55781 1.06066
rclavicle -2.08724e-015 1.90833e-014
rhumerus -51.4132 -2.05369 -89.5333
rradius 76.6213
rwrist -10.2144
rhand -27.2169 9.76607
rfingers 7.12502
rthumb -0.629538 -20.2127
lclavicle -2.08724e-015 1.90833e-014
lhumerus -55.2059 -8.14259 96.5545
lradius 93.5301
lwrist 11.3496
lhand -23.1858 -11.7633
lfingers 7.12502
lthumb 3.26369 18.1915
rfemur -27.578 -13.6508 11.5068
rtibia 98.4229
rfoot -9.14151 -10.1132
rtoes -26.5649
lfemur -41.1479 -3.4908 -27.8892
ltibia 66.3454
lfoot -23.157 -1.4129
ltoes 0.0246004
174
root 9.52564 15.4286 39.9199 5.24137 2.75713 4.96408
lowerback 14.9288 0.269782 -4.73194
upperback -0.38866 -0.506412 -0.355242
thorax -8.78895 -0.0388099 2.41184
lowerneck -22.608 -3.03642 -4.32628
upperneck 13.366 -3.19199 2.32982
head 7.91875 -1.50256 1.05788
rclavicle 1.10325e-014 -4.37326e-015
rhumerus -52.4705 -2.36111 -88.9022
rradius 75.0469
rwrist -10.8306
rhand -27.4921 10.05
rfingers 7.12502
rthumb -0.895366 -19.9279
lclavicle 1.10325e-014 -4.37326e-015
lhumerus -53.2927 -8.06045 96.3616
lradius 94.0056
lwrist 10.6895
lhand -23.2274 -11.6666
lfingers 7.12502
lthumb 3.22349 18.2888
rfemur -31.0949 -13.8601 11.915
rtibia 98.043
rfoot -10.0135 -9.7899
rtoes -28.1316
lfemur -39.1401 -3.27516 -28.1392
ltibia 66.6837
lfoot -24.7235 -0.854891
ltoes -0.632419
175
root 9.5313 15.4334 40.3715 5.03949 2.3462 5.18699
lowerback 15.0649 0.227933 -5.00635
upperback -0.452906 -0.624993 -0.399989
thorax -8.92627 -0.0799026 2.54685
lowerneck -22.5873 -2.91312 -4.25649
upperneck 13.7463 -3.04481 2.28121
head 8.03679 -1.43539 1.04954
rclavicle -1.32192e-014 1.31198e-014
rhumerus -53.6443 -2.25719 -88.3719
rradius 74.1028
rwrist -11.2628
rhand -27.3775 10.2186
rfingers 7.12502
rthumb -0.78467 -19.7597
lclavicle -1.32192e-014 1.31198e-014
lhumerus -51.6556 -7.79507 96.1693
lradius 95.0467
lwrist 10.58
lhand -23.2238 -11.566
lfingers 7.12502
lthumb 3.22695 18.3893
rfemur -34.4326 -13.8473 12.3691
rtibia 97.0867
rfoot -10.7776 -9.62305
rtoes -29.5717
lfemur -37.0312 -3.0897 -28.4346
ltibia 66.8415
lfoot -26.0561 -0.321943
ltoes -1.61026
176
root 9.53508 15.4454 40.8274 4.88826 1.96636 5.41481
lowerback 15.1478 0.157986 -5.32769
upperback -0.522924 -0.784772 -0.416991
thorax -9.03467 -0.137955 2.74751
lowerneck -22.693 -2.77376 -4.15967
upperneck 14.165 -2.87503 2.21426
head 8.18787 -1.35727 1.03289
rclavicle 2.6339e-015 -2.78299e-014
rhumerus -54.9027 -1.81824 -87.949
rradius 73.7587
rwrist -11.446
rhand -27.0291 10.4083
rfingers 7.12502
rthumb -0.448211 -19.571
lclavicle 2.6339e-015 -2.78299e-014
lhumerus -50.2403 -7.43786 95.9845
lradius 96.5818
lwrist 11.1828
lhand -23.1512 -11.4492
lfingers 7.12502
lthumb 3.29713 18.5051
rfemur -37.5996 -13.6608 12.8786
rtibia 95.555
rfoot -11.4194 -9.60645
rtoes -30.7717
lfemur -34.92 -2.98272 -28.7302
ltibia 66.8534
lfoot -27.0631 0.161695
ltoes -2.98385
